<svg width="60" height="60" viewBox="0 0 60 60" fill="none" xmlns="http://www.w3.org/2000/svg">
<path d="M35.625 48.7498V37.4998C35.625 37.0025 35.4275 36.5256 35.0758 36.1739C34.7242 35.8223 34.2473 35.6248 33.75 35.6248H26.25C25.7527 35.6248 25.2758 35.8223 24.9242 36.1739C24.5725 36.5256 24.375 37.0025 24.375 37.4998V48.7498C24.375 49.2471 24.1775 49.724 23.8258 50.0756C23.4742 50.4272 22.9973 50.6248 22.5 50.6248H11.25C10.7527 50.6248 10.2758 50.4272 9.92418 50.0756C9.57254 49.724 9.375 49.2471 9.375 48.7498V27.0701C9.3792 26.8106 9.43528 26.5546 9.53993 26.3171C9.64458 26.0796 9.7957 25.8655 9.98437 25.6873L28.7344 8.64821C29.08 8.33199 29.5315 8.15662 30 8.15662C30.4685 8.15662 30.92 8.33199 31.2656 8.64821L50.0156 25.6873C50.2043 25.8655 50.3554 26.0796 50.4601 26.3171C50.5647 26.5546 50.6208 26.8106 50.625 27.0701V48.7498C50.625 49.2471 50.4275 49.724 50.0758 50.0756C49.7242 50.4272 49.2473 50.6248 48.75 50.6248H37.5C37.0027 50.6248 36.5258 50.4272 36.1742 50.0756C35.8225 49.724 35.625 49.2471 35.625 48.7498Z" stroke="white" stroke-width="2" stroke-linecap="round" stroke-linejoin="round"/>
</svg>
