<svg width="60" height="60" viewBox="0 0 60 60" fill="none" xmlns="http://www.w3.org/2000/svg">
<path d="M35.625 48.7499V37.4999C35.625 37.0026 35.4275 36.5257 35.0758 36.1741C34.7242 35.8224 34.2473 35.6249 33.75 35.6249H26.25C25.7527 35.6249 25.2758 35.8224 24.9242 36.1741C24.5725 36.5257 24.375 37.0026 24.375 37.4999V48.7499C24.375 49.2472 24.1775 49.7241 23.8258 50.0757C23.4742 50.4274 22.9973 50.6249 22.5 50.6249H11.25C10.7527 50.6249 10.2758 50.4274 9.92418 50.0757C9.57254 49.7241 9.375 49.2472 9.375 48.7499V27.0702C9.3792 26.8107 9.43528 26.5547 9.53993 26.3172C9.64458 26.0797 9.7957 25.8656 9.98437 25.6874L28.7344 8.64833C29.08 8.33211 29.5315 8.15674 30 8.15674C30.4685 8.15674 30.92 8.33211 31.2656 8.64833L50.0156 25.6874C50.2043 25.8656 50.3554 26.0797 50.4601 26.3172C50.5647 26.5547 50.6208 26.8107 50.625 27.0702V48.7499C50.625 49.2472 50.4275 49.7241 50.0758 50.0757C49.7242 50.4274 49.2473 50.6249 48.75 50.6249H37.5C37.0027 50.6249 36.5258 50.4274 36.1742 50.0757C35.8225 49.7241 35.625 49.2472 35.625 48.7499Z" stroke="#2C2C2C" stroke-width="2" stroke-linecap="round" stroke-linejoin="round"/>
</svg>
