<svg width="60" height="60" viewBox="0 0 60 60" fill="none" xmlns="http://www.w3.org/2000/svg">
<path d="M30 41.25C36.2132 41.25 41.25 36.2132 41.25 30C41.25 23.7868 36.2132 18.75 30 18.75C23.7868 18.75 18.75 23.7868 18.75 30C18.75 36.2132 23.7868 41.25 30 41.25Z" stroke="#2C2C2C" stroke-width="2" stroke-linecap="round" stroke-linejoin="round"/>
<path d="M46.2656 18.9136C46.8298 19.7214 47.3238 20.5761 47.7421 21.4683L53.8124 24.8433C54.5704 28.2381 54.5784 31.7575 53.8359 35.1558L47.7421 38.5308C47.3238 39.4229 46.8298 40.2776 46.2656 41.0855L46.3828 48.0464C43.8101 50.3907 40.7653 52.1569 37.4531 53.2261L31.4765 49.6401C30.4934 49.7105 29.5065 49.7105 28.5234 49.6401L22.5703 53.2026C19.2475 52.1529 16.1927 50.3935 13.6171 48.0464L13.7343 41.1089C13.1748 40.2899 12.6811 39.4278 12.2578 38.5308L6.18745 35.1558C5.42947 31.7609 5.42148 28.2415 6.16401 24.8433L12.2578 21.4683C12.6761 20.5761 13.1701 19.7214 13.7343 18.9136L13.6171 11.9526C16.1898 9.60834 19.2346 7.84217 22.5468 6.77295L28.5234 10.3589C29.5065 10.2886 30.4934 10.2886 31.4765 10.3589L37.4296 6.79639C40.7523 7.84614 43.8072 9.6055 46.3828 11.9526L46.2656 18.9136Z" stroke="#2C2C2C" stroke-width="2" stroke-linecap="round" stroke-linejoin="round"/>
</svg>
