<svg width="60" height="60" viewBox="0 0 60 60" fill="none" xmlns="http://www.w3.org/2000/svg">
<path d="M30 41.25C36.2132 41.25 41.25 36.2132 41.25 30C41.25 23.7868 36.2132 18.75 30 18.75C23.7868 18.75 18.75 23.7868 18.75 30C18.75 36.2132 23.7868 41.25 30 41.25Z" stroke="white" stroke-width="2" stroke-linecap="round" stroke-linejoin="round"/>
<path d="M46.2656 18.9141C46.8298 19.7219 47.3238 20.5766 47.7421 21.4687L53.8124 24.8437C54.5704 28.2386 54.5784 31.758 53.8359 35.1562L47.7421 38.5312C47.3238 39.4234 46.8298 40.2781 46.2656 41.0859L46.3828 48.0469C43.8101 50.3912 40.7653 52.1573 37.4531 53.2266L31.4765 49.6406C30.4934 49.7109 29.5065 49.7109 28.5234 49.6406L22.5703 53.2031C19.2475 52.1534 16.1927 50.394 13.6171 48.0469L13.7343 41.1094C13.1748 40.2904 12.6811 39.4283 12.2578 38.5312L6.18745 35.1562C5.42947 31.7614 5.42148 28.242 6.16401 24.8437L12.2578 21.4687C12.6761 20.5766 13.1701 19.7219 13.7343 18.9141L13.6171 11.9531C16.1898 9.60882 19.2346 7.84266 22.5468 6.77344L28.5234 10.3594C29.5065 10.2891 30.4934 10.2891 31.4765 10.3594L37.4296 6.79688C40.7523 7.84663 43.8072 9.60598 46.3828 11.9531L46.2656 18.9141Z" stroke="white" stroke-width="2" stroke-linecap="round" stroke-linejoin="round"/>
</svg>
