<svg width="60" height="60" viewBox="0 0 60 60" fill="none" xmlns="http://www.w3.org/2000/svg">
<path d="M20.625 37.5C27.356 37.5 32.8125 32.0435 32.8125 25.3125C32.8125 18.5815 27.356 13.125 20.625 13.125C13.894 13.125 8.4375 18.5815 8.4375 25.3125C8.4375 32.0435 13.894 37.5 20.625 37.5Z" stroke="white" stroke-width="2" stroke-miterlimit="10"/>
<path d="M36.4219 13.5703C37.4992 13.2781 38.6103 13.1284 39.7266 13.125C42.9589 13.125 46.0588 14.409 48.3444 16.6946C50.63 18.9802 51.9141 22.0802 51.9141 25.3125C51.9141 28.5448 50.63 31.6448 48.3444 33.9304C46.0588 36.216 42.9589 37.5 39.7266 37.5" stroke="white" stroke-width="2" stroke-linecap="round" stroke-linejoin="round"/>
<path d="M3.75 46.2655C5.653 43.5575 8.17977 41.3472 11.1169 39.8214C14.054 38.2956 17.3152 37.499 20.625 37.499C23.9348 37.499 27.196 38.2956 30.1331 39.8214C33.0702 41.3472 35.597 43.5575 37.5 46.2655" stroke="white" stroke-width="2" stroke-linecap="round" stroke-linejoin="round"/>
<path d="M39.7266 37.5C43.0366 37.498 46.2985 38.2935 49.2359 39.8194C52.1733 41.3452 54.6999 43.5563 56.6016 46.2656" stroke="white" stroke-width="2" stroke-linecap="round" stroke-linejoin="round"/>
</svg>
