<svg width="40" height="40" viewBox="0 0 40 40" fill="none" xmlns="http://www.w3.org/2000/svg">
<path d="M28.7808 14.2962C28.9238 14.439 29.0373 14.6087 29.1147 14.7955C29.1921 14.9822 29.232 15.1824 29.232 15.3846C29.232 15.5868 29.1921 15.787 29.1147 15.9738C29.0373 16.1605 28.9238 16.3302 28.7808 16.4731L18.0115 27.2423C17.8687 27.3853 17.699 27.4988 17.5122 27.5762C17.3255 27.6537 17.1253 27.6935 16.9231 27.6935C16.7209 27.6935 16.5207 27.6537 16.3339 27.5762C16.1472 27.4988 15.9775 27.3853 15.8346 27.2423L11.2192 22.6269C10.9306 22.3382 10.7684 21.9467 10.7684 21.5385C10.7684 21.1302 10.9306 20.7387 11.2192 20.45C11.5079 20.1613 11.8994 19.9991 12.3077 19.9991C12.716 19.9991 13.1075 20.1613 13.3962 20.45L16.9231 23.9788L26.6038 14.2962C26.7467 14.1531 26.9164 14.0396 27.1032 13.9622C27.2899 13.8848 27.4901 13.8449 27.6923 13.8449C27.8945 13.8449 28.0947 13.8848 28.2815 13.9622C28.4682 14.0396 28.6379 14.1531 28.7808 14.2962ZM40 20C40 23.9556 38.827 27.8224 36.6294 31.1114C34.4318 34.4004 31.3082 36.9638 27.6537 38.4776C23.9991 39.9913 19.9778 40.3874 16.0982 39.6157C12.2186 38.844 8.65492 36.9392 5.85787 34.1421C3.06082 31.3451 1.15601 27.7814 0.384303 23.9018C-0.387401 20.0222 0.00866569 16.0008 1.52242 12.3463C3.03617 8.69181 5.59962 5.56823 8.8886 3.37061C12.1776 1.17298 16.0444 0 20 0C25.3026 0.00559965 30.3864 2.11453 34.136 5.86405C37.8855 9.61356 39.9944 14.6974 40 20ZM36.9231 20C36.9231 16.6529 35.9306 13.381 34.071 10.598C32.2115 7.81505 29.5685 5.64598 26.4762 4.36511C23.3839 3.08425 19.9812 2.74911 16.6985 3.40209C13.4157 4.05508 10.4003 5.66684 8.03358 8.03358C5.66685 10.4003 4.05508 13.4157 3.4021 16.6985C2.74912 19.9812 3.08426 23.3839 4.36512 26.4762C5.64599 29.5685 7.81506 32.2115 10.598 34.071C13.381 35.9305 16.6529 36.9231 20 36.9231C24.4867 36.918 28.7882 35.1334 31.9608 31.9608C35.1334 28.7882 36.918 24.4867 36.9231 20Z" fill="black"/>
</svg>
