<svg width="39" height="39" viewBox="0 0 39 39" fill="none" xmlns="http://www.w3.org/2000/svg">
<path d="M32.9062 7.3125H26.8125V6.09375C26.8125 5.12405 26.4273 4.19407 25.7416 3.50839C25.0559 2.82271 24.1259 2.4375 23.1562 2.4375H15.8438C14.8741 2.4375 13.9441 2.82271 13.2584 3.50839C12.5727 4.19407 12.1875 5.12405 12.1875 6.09375V7.3125H6.09375C5.77052 7.3125 5.46052 7.4409 5.23196 7.66946C5.0034 7.89802 4.875 8.20802 4.875 8.53125C4.875 8.85448 5.0034 9.16448 5.23196 9.39304C5.46052 9.6216 5.77052 9.75 6.09375 9.75H7.3125V31.6875C7.3125 32.334 7.56931 32.954 8.02643 33.4111C8.48355 33.8682 9.10353 34.125 9.75 34.125H29.25C29.8965 34.125 30.5165 33.8682 30.9736 33.4111C31.4307 32.954 31.6875 32.334 31.6875 31.6875V9.75H32.9062C33.2295 9.75 33.5395 9.6216 33.768 9.39304C33.9966 9.16448 34.125 8.85448 34.125 8.53125C34.125 8.20802 33.9966 7.89802 33.768 7.66946C33.5395 7.4409 33.2295 7.3125 32.9062 7.3125ZM14.625 6.09375C14.625 5.77052 14.7534 5.46052 14.982 5.23196C15.2105 5.0034 15.5205 4.875 15.8438 4.875H23.1562C23.4795 4.875 23.7895 5.0034 24.018 5.23196C24.2466 5.46052 24.375 5.77052 24.375 6.09375V7.3125H14.625V6.09375ZM29.25 31.6875H9.75V9.75H29.25V31.6875ZM17.0625 15.8438V25.5938C17.0625 25.917 16.9341 26.227 16.7055 26.4555C16.477 26.6841 16.167 26.8125 15.8438 26.8125C15.5205 26.8125 15.2105 26.6841 14.982 26.4555C14.7534 26.227 14.625 25.917 14.625 25.5938V15.8438C14.625 15.5205 14.7534 15.2105 14.982 14.982C15.2105 14.7534 15.5205 14.625 15.8438 14.625C16.167 14.625 16.477 14.7534 16.7055 14.982C16.9341 15.2105 17.0625 15.5205 17.0625 15.8438ZM24.375 15.8438V25.5938C24.375 25.917 24.2466 26.227 24.018 26.4555C23.7895 26.6841 23.4795 26.8125 23.1562 26.8125C22.833 26.8125 22.523 26.6841 22.2945 26.4555C22.0659 26.227 21.9375 25.917 21.9375 25.5938V15.8438C21.9375 15.5205 22.0659 15.2105 22.2945 14.982C22.523 14.7534 22.833 14.625 23.1562 14.625C23.4795 14.625 23.7895 14.7534 24.018 14.982C24.2466 15.2105 24.375 15.5205 24.375 15.8438Z" fill="black"/>
</svg>
